<svg height="26" viewBox="0 0 270 26" width="270" xmlns="http://www.w3.org/2000/svg"><path d="m269.359 21.241v3.536h-15.158v-23.573h15.125v3.538h-11.084v6.533h9.5v3.366h-9.5v6.602zm-28.902 4.04c-5.83 0-9.164-3.098-9.164-8.484v-7.609c0-5.387 3.334-8.487 9.164-8.487 2.492 0 4.547.674 6.197 2.056 1.65 1.378 2.492 3.4 2.492 6.094v.337h-4.041v-.337c0-1.449-.474-2.559-1.449-3.3-.977-.776-2.055-1.146-3.234-1.146-3.402 0-5.086 1.651-5.086 4.514v8.147c0 2.86 1.684 4.514 5.086 4.514 1.18 0 2.258-.371 3.234-1.112.977-.774 1.449-1.887 1.449-3.336v-.335h4.041v.335c0 2.696-.842 4.718-2.492 6.097-1.65 1.38-3.705 2.052-6.197 2.052zm-18.26-6.329h-8.893l-2.121 5.825h-3.74v-1.347l8.422-22.227h3.975l8.422 22.227v1.348h-3.975zm-4.412-12.357-3.268 8.991h6.469zm-17.484 9.093h-6.164v9.09h-4.043v-23.574h10.207c4.143 0 6.635 2.799 6.635 7.242 0 4.446-2.493 7.242-6.635 7.242zm-.707-10.946h-5.457v7.409h5.457c1.854 0 3.234-1.314 3.234-3.705 0-2.389-1.381-3.704-3.234-3.704zm-22.84 6.297.471.168c1.281.438 2.293.843 3.033 1.18.773.335 1.549.775 2.393 1.345 1.648 1.11 2.39 2.593 2.39 4.58 0 4.142-3.164 6.97-8.924 6.97-2.63 0-4.818-.706-6.57-2.087-1.717-1.413-2.594-3.436-2.594-6.062h4.043c0 1.112.303 1.989.875 2.696 1.213 1.381 2.729 1.752 4.479 1.752 2.83 0 4.414-1.28 4.414-3.065 0-.842-.371-1.48-1.111-1.92-.741-.471-2.09-1.078-4.043-1.816l-.305-.102-.539-.203c-2.559-.977-4.41-1.919-5.522-2.829-1.113-.943-1.649-2.29-1.649-4.073 0-2.055.741-3.738 2.258-4.985 1.514-1.246 3.604-1.886 6.229-1.886 5.287 0 8.758 2.526 8.758 7.948h-4.041c0-2.964-2.021-4.244-4.75-4.244-2.661 0-4.379 1.212-4.379 2.862 0 .91.336 1.617 1.043 2.054.705.44 2.053 1.009 4.041 1.717zm-30.959 4.68h-4.648v9.059h-4.043v-23.574h10.14c4.582 0 7.108 2.663 7.108 7.242 0 3.132-1.416 5.623-4.145 6.803l4.412 8.183v1.346h-3.973zm4.445-7.205c0-2.527-1.246-3.772-3.738-3.772h-5.355v7.544h5.355c2.492 0 3.738-1.248 3.738-3.772zm-27.791 16.767c-2.729 0-4.916-.706-6.535-2.154-1.582-1.445-2.393-3.466-2.393-6.025v-15.896h4.044v16.096c0 2.458 1.751 4.278 4.884 4.278s4.885-1.82 4.885-4.278v-16.096h4.041v15.896c0 2.561-.808 4.58-2.424 6.025-1.584 1.448-3.773 2.154-6.502 2.154zm-23.242.001c-5.693 0-9.266-3.198-9.266-8.485v-7.61c0-5.287 3.572-8.486 9.266-8.486s9.262 3.199 9.262 8.486v7.61c0 5.287-3.569 8.485-9.262 8.485zm5.221-16.297c0-2.661-1.854-4.581-5.221-4.581-3.37 0-5.223 1.919-5.223 4.581v8.015c0 2.661 1.853 4.58 5.223 4.58 3.367 0 5.221-1.919 5.221-4.58zm-25.266 15.792h-10.847v-23.573h9.939c4.209 0 6.736 2.157 6.736 6.333 0 2.391-.943 4.042-2.828 5.017 2.491.91 3.737 2.795 3.737 5.692 0 4.274-2.459 6.531-6.737 6.531zm-1.582-20.035h-5.222v6.566h5.222c2.222 0 3.334-1.11 3.334-3.3s-1.112-3.266-3.334-3.266zm.908 9.935h-6.13v6.564h6.13c2.258 0 3.369-1.078 3.369-3.232 0-2.222-1.111-3.332-3.369-3.332zm-23.715 1.042h-4.648v9.059h-4.043v-23.574h10.139c4.582 0 7.108 2.663 7.108 7.242 0 3.132-1.415 5.623-4.144 6.803l4.414 8.183v1.346h-3.976zm4.447-7.205c0-2.527-1.247-3.772-3.738-3.772h-5.356v7.544h5.356c2.491 0 3.738-1.248 3.738-3.772zm-22.907 10.438h-8.893l-2.122 5.825h-3.74v-1.347l8.422-22.226h3.975l8.421 22.228v1.346h-3.975zm-4.413-12.357-3.267 8.991h6.467zm-18.09 8.148h-9.77v10.034h-4.04v-23.573h4.041v10.002h9.77v-10.002h4.041v23.573h-4.042z" fill="#ffffff" /><circle cx="161.555" cy="24.745" r="1.256" fill="#ffffff" /></svg>